<svg width="261" height="40" viewBox="0 0 261 40" fill="none" xmlns="http://www.w3.org/2000/svg">
<path fill-rule="evenodd" clip-rule="evenodd" d="M6.46667 34.0336H0.250244V0H13.7097V6.26667H6.4571L6.46667 34.0336ZM27.8338 0H42.329V6.26667H34.3044V12.8334H40.5209V19.1001H34.3044V27.7779H42.8473V34.0445H27.8338V0ZM68.7399 19.1001H62.7872V34.0223H56.3163V0H62.7872V12.8334H68.7399V0H74.9563V34.0336H68.7399V19.1001ZM88.9924 0H103.488V6.26667H95.4629V12.8334H101.68V19.1001H95.4629V27.7779H104.006V34.0445H88.9924V0ZM129.116 9.8445C129.116 8.30004 128.207 6.26667 126.79 6.26667H123.897V17.3112H126.829C128.256 17.3112 129.155 14.4223 129.155 13.1334L129.116 9.8445ZM128.334 23.3334H123.897V34.0779H117.426V0H128.041C129.018 0.0229896 129.981 0.265661 130.875 0.714035C131.769 1.16237 132.576 1.80755 133.249 2.61227C133.923 3.41698 134.449 4.36534 134.798 5.40258C135.148 6.43983 135.313 7.54543 135.284 8.65557V14.0334C135.323 17.7779 133.466 23.3334 128.334 23.3334ZM155.116 9.01113L153.044 21.5446H157.189L155.116 9.01113ZM158.225 27.2224H152.008L150.972 34.0891H144.501L150.972 0H159.261L165.731 34.0336H159.261L158.225 27.2224ZM192.767 34.0891H176.679V0H183.149V27.7779H188.848V0H195.319V27.7779H197.909V40H192.728L192.767 34.0891ZM222.394 15.8778L215.923 30.5001V34.0779H209.452V0H215.923V18.2112L222.394 3.58889V0H228.864V34.0336H222.394V15.8778ZM253.78 6.32224H250.671C249.547 6.32224 248.599 8.01112 248.599 9.01113V12.8889C248.599 14.0001 249.42 16.4667 250.407 16.4667H253.77L253.78 6.32224ZM253.78 34.1V22.089H251.707L247.563 34.0336H240.574L246.273 20.6001C246.273 20.6001 242.363 18.6112 242.363 12.5445V8.10001C242.363 3.46664 245.207 0.0444259 249.87 0.0444259H260.25V34.0779L253.78 34.1Z" fill="#404040"/>
</svg>
